HIERARCHY
ROOT Model_Hips
{
	OFFSET 0.000000 96.915077 0.000000
	CHANNELS 6 Xposition Yposition Zposition Xrotation Yrotation Zrotation
	JOINT Model_Spine
	{
		OFFSET 0.000000 11.137703 -1.289900
		CHANNELS 3 Xrotation Yrotation Zrotation
		JOINT Model_Spine1
		{
			OFFSET 0.000000 12.993942 -1.504922
			CHANNELS 3 Xrotation Yrotation Zrotation
			JOINT Model_Spine2
			{
				OFFSET 0.000000 14.850220 -1.719911
				CHANNELS 3 Xrotation Yrotation Zrotation
				JOINT Model_Neck
				{
					OFFSET 0.000000 16.706543 -1.934903
					CHANNELS 3 Xrotation Yrotation Zrotation
					JOINT Model_Head
					{
						OFFSET 0.000000 10.471298 2.002100
						CHANNELS 3 Xrotation Yrotation Zrotation
						JOINT Model_HeadTop_End
						{
							OFFSET 0.000000 20.842606 3.985100
							CHANNELS 3 Xrotation Yrotation Zrotation
							End Site
							{
								OFFSET 0.000000 21.220154 0.000000
							}
						}
					}
				}
				JOINT Model_LeftShoulder
				{
					OFFSET 7.008500 14.768600 -1.919946
					CHANNELS 3 Xrotation Yrotation Zrotation
					JOINT Model_LeftArm
					{
						OFFSET 14.126271 -3.718048 0.029937
						CHANNELS 3 Xrotation Yrotation Zrotation
						JOINT Model_LeftForeArm
						{
							OFFSET 28.282801 0.000000 0.000000
							CHANNELS 3 Xrotation Yrotation Zrotation
							JOINT Model_LeftHand
							{
								OFFSET 26.204689 0.000000 0.000000
								CHANNELS 3 Xrotation Yrotation Zrotation
								End Site
								{
									OFFSET 26.204704 0.000000 0.000000
								}
							}
						}
					}
				}
				JOINT Model_RightShoulder
				{
					OFFSET -7.008500 14.768555 -1.949840
					CHANNELS 3 Xrotation Yrotation Zrotation
					JOINT Model_RightArm
					{
						OFFSET -14.126281 -3.718018 -0.029932
						CHANNELS 3 Xrotation Yrotation Zrotation
						JOINT Model_RightForeArm
						{
							OFFSET -28.283798 0.000000 -0.000001
							CHANNELS 3 Xrotation Yrotation Zrotation
							JOINT Model_RightHand
							{
								OFFSET -26.204193 0.000000 -0.000001
								CHANNELS 3 Xrotation Yrotation Zrotation
								End Site
								{
									OFFSET -26.204208 0.000000 -0.000001
								}
							}
						}
					}
				}
			}
		}
	}
	JOINT Model_LeftUpLeg
	{
		OFFSET 8.327700 -6.193199 -0.402800
		CHANNELS 3 Xrotation Yrotation Zrotation
		JOINT Model_LeftLeg
		{
			OFFSET 0.735802 -42.108742 -0.610721
			CHANNELS 3 Xrotation Yrotation Zrotation
			JOINT Model_LeftFoot
			{
				OFFSET -0.735806 -36.833748 -0.172876
				CHANNELS 3 Xrotation Yrotation Zrotation
				JOINT Model_LeftToeBase
				{
					OFFSET -0.565857 -11.977769 16.297714
					CHANNELS 3 Xrotation Yrotation Zrotation
					JOINT Model_LeftToe_End
					{
						OFFSET -0.111712 -0.312793 7.857784
						CHANNELS 3 Xrotation Yrotation Zrotation
						End Site
						{
							OFFSET -0.111712 -0.312793 7.857784
						}
					}
				}
			}
		}
	}
	JOINT Model_RightUpLeg
	{
		OFFSET -8.327700 -6.193199 -0.516500
		CHANNELS 3 Xrotation Yrotation Zrotation
		JOINT Model_RightLeg
		{
			OFFSET -0.735785 -42.108738 -0.434061
			CHANNELS 3 Xrotation Yrotation Zrotation
			JOINT Model_RightFoot
			{
				OFFSET 0.735776 -36.833748 -0.021630
				CHANNELS 3 Xrotation Yrotation Zrotation
				JOINT Model_RightToeBase
				{
					OFFSET 0.565817 -11.977745 15.903093
					CHANNELS 3 Xrotation Yrotation Zrotation
					JOINT Model_RightToe_End
					{
						OFFSET 0.111702 -0.312791 7.811342
						CHANNELS 3 Xrotation Yrotation Zrotation
						End Site
						{
							OFFSET 0.111702 -0.312791 7.811342
						}
					}
				}
			}
		}
	}
}
MOTION
Frames: 6
Frame Time: 0.016667
0.170584 96.335754 0.305657 -3.749905 -6.080587 -4.392307 3.283810 1.582979 3.535985 1.158074 0.357947 1.691010 1.131803 0.383460 1.696558 5.626310 -0.078964 0.454684 5.621597 -0.099935 0.491954 -0.000001 -0.000000 -0.000000 1.049459 -17.442076 -12.319383 3.916252 -19.989254 -69.765253 0.000003 -1.459347 0.000008 -0.000003 0.000000 -0.000000 1.203140 15.343653 14.705935 13.158856 27.555118 58.785171 0.000006 6.693743 0.000009 -0.000003 0.000001 -0.000001 -18.146114 32.311627 16.204842 19.747096 -7.287236 5.877692 -4.549716 -8.395174 -5.961950 -4.928524 0.000003 0.000000 -0.000000 -0.000001 -0.000000 0.250598 -10.512602 4.301304 12.668535 -9.882309 -3.285722 -8.463820 -1.843013 3.715894 -7.282868 -0.000004 -0.000003 0.000000 0.000001 0.000000 
0.109855 96.314850 -0.072153 -3.319279 -4.231900 -4.096344 3.317322 1.715869 3.582741 1.201483 0.441189 1.680088 1.173240 0.467887 1.670399 5.533611 0.180033 0.312595 5.534008 0.153496 0.341578 -0.000001 0.000000 -0.000000 1.027428 -17.490122 -12.414753 3.325736 -19.935654 -69.474273 0.000009 -1.905646 -0.000013 0.000002 0.000001 0.000000 1.225285 15.379706 14.585645 13.527477 27.607732 58.551394 0.000004 6.807187 0.000004 0.000000 0.000000 -0.000000 -19.193747 32.189930 16.450103 19.924821 -7.449888 5.057318 -4.017966 -9.865445 -5.699017 -4.635742 0.000004 0.000003 0.000001 0.000001 0.000000 -0.462694 -12.396911 4.045506 13.277451 -9.922073 -3.285704 -8.721524 -1.848072 3.680728 -7.282873 -0.000000 -0.000002 0.000001 0.000001 0.000000 
0.001483 96.278137 -0.392526 -2.955864 -2.391391 -3.846003 3.360849 1.829124 3.623943 1.248463 0.509766 1.699851 1.218347 0.536308 1.655904 5.523489 0.612423 0.100401 5.536308 0.572832 0.110193 0.000000 -0.000000 0.000000 0.993332 -17.560109 -12.568240 2.639227 -19.942848 -69.046642 -0.000003 -2.239523 0.000010 -0.000000 0.000000 0.000000 1.250875 15.407587 14.460542 13.944143 27.532108 58.271738 0.000008 6.984346 -0.000012 -0.000003 0.000000 0.000000 -20.480611 32.075914 16.958711 20.640780 -7.749065 4.328000 -3.941307 -10.850047 -6.175900 -4.410399 0.000008 -0.000003 -0.000000 0.000001 -0.000000 -1.126009 -14.250520 3.801462 13.988093 -9.987869 -3.285755 -9.086874 -1.850631 3.649178 -7.282865 0.000018 0.000002 -0.000000 0.000001 0.000000 
-0.158004 96.257530 -0.752242 -2.647767 -0.461949 -3.586626 3.413199 1.931434 3.647712 1.300755 0.572647 1.741639 1.268900 0.597253 1.648437 5.574032 1.154002 -0.152527 5.604252 1.096486 -0.168836 0.000001 -0.000000 -0.000000 0.951961 -17.638644 -12.756043 1.882732 -19.997380 -68.527616 0.000006 -2.462496 0.000000 0.000002 0.000000 0.000000 1.278222 15.426657 14.337421 14.375783 27.361702 57.972173 0.000010 7.195237 -0.000005 -0.000002 -0.000000 0.000001 -21.909585 31.897991 17.547280 21.626184 -8.075102 3.644899 -3.871061 -11.404854 -7.282309 -4.211258 0.000006 -0.000004 -0.000000 -0.000001 0.000000 -1.688164 -16.176478 3.550073 14.532329 -10.017726 -3.285903 -9.362830 -1.887249 3.563728 -7.282874 0.000013 0.000001 0.000000 -0.000000 0.000000 
-0.358764 96.250526 -1.145167 -2.396737 1.512780 -3.329384 3.476711 2.022563 3.635664 1.360987 0.633287 1.808119 1.327582 0.653675 1.648438 5.696209 1.810648 -0.444569 5.749579 1.729911 -0.494237 -0.000000 -0.000001 -0.000000 0.903959 -17.718581 -12.975326 1.090650 -20.084019 -67.914497 -0.000005 -2.649988 -0.000003 -0.000001 -0.000001 -0.000001 1.302104 15.431557 14.221612 14.812047 27.087333 57.658708 -0.000015 7.436508 0.000006 0.000002 0.000000 -0.000000 -23.327685 31.660529 18.170190 22.721254 -8.371553 2.947912 -3.783077 -11.421335 -8.842650 -3.966222 0.000001 0.000001 -0.000000 -0.000002 0.000000 -2.160869 -18.137723 3.301706 14.931632 -10.021167 -3.286361 -9.557543 -1.944011 3.433969 -7.282868 0.000012 0.000001 0.000000 0.000002 0.000000 
-0.590021 96.245857 -1.563167 -2.200695 3.479269 -3.116493 3.551728 2.105203 3.572369 1.430452 0.696751 1.898025 1.395760 0.710311 1.654203 5.891075 2.570636 -0.766023 5.973339 2.461724 -0.855497 0.000001 0.000000 -0.000000 0.851604 -17.789711 -13.216300 0.296644 -20.177135 -67.218760 -0.000005 -2.860207 -0.000001 -0.000002 0.000000 -0.000000 1.323329 15.420262 14.119195 15.246167 26.721271 57.336201 0.000003 7.701364 0.000020 -0.000002 0.000000 0.000000 -24.504154 31.499955 18.763559 23.699797 -8.719886 2.233830 -3.697218 -10.588450 -10.228370 -3.695119 -0.000009 0.000001 0.000001 0.000000 -0.000002 -2.562195 -20.084294 3.098171 15.242764 -10.025550 -3.286897 -9.699611 -1.997126 3.273339 -7.282866 -0.000000 -0.000001 0.000001 -0.000000 -0.000000 
